HIERARCHY
ROOT Hips
{
	OFFSET 0.000000 0.000000 0.000000
	CHANNELS 6 Xposition Yposition Zposition Zrotation Yrotation Xrotation 
	JOINT LHipJoint
	{
		OFFSET 0.000000 0.000000 0.000000
		CHANNELS 3 Zrotation Yrotation Xrotation
		JOINT LeftUpLeg
		{
			OFFSET 1.363060 -1.794630 0.839290
			CHANNELS 3 Zrotation Yrotation Xrotation
			JOINT LeftLeg
			{
				OFFSET 2.448110 -6.726130 0.000000
				CHANNELS 3 Zrotation Yrotation Xrotation
				JOINT LeftFoot
				{
					OFFSET 2.562200 -7.039590 0.000000
					CHANNELS 3 Zrotation Yrotation Xrotation
					JOINT LeftToeBase
					{
						OFFSET 0.157640 -0.433110 2.322550
						CHANNELS 3 Zrotation Yrotation Xrotation
						End Site
						{
							OFFSET 0.000000 0.000000 0.000000
						}
					}
				}
			}
		}
	}
	JOINT RHipJoint
	{
		OFFSET 0.000000 0.000000 0.000000
		CHANNELS 3 Zrotation Yrotation Xrotation
		JOINT RightUpLeg
		{
			OFFSET -1.305520 -1.794630 0.839290
			CHANNELS 3 Zrotation Yrotation Xrotation
			JOINT RightLeg
			{
				OFFSET -2.542530 -6.985550 0.000000
				CHANNELS 3 Zrotation Yrotation Xrotation
				JOINT RightFoot
				{
					OFFSET -2.568260 -7.056230 0.000000
					CHANNELS 3 Zrotation Yrotation Xrotation
					JOINT RightToeBase
					{
						OFFSET -0.164730 -0.452590 2.363150
						CHANNELS 3 Zrotation Yrotation Xrotation
						End Site
						{
							OFFSET 0.000000 0.000000 0.000000
						}
					}
				}
			}
		}
	}
}
MOTION
Frames: 27
Frame Time: 0.008333
16.958420 16.812412 1.654739 155.231808 -86.005695 -102.937933 -8.404881 -0.609217 3.742587 -8.464298 -11.644715 -59.119046 -2.323360 -1.955290 13.014565 4.215214 15.712195 -12.999800 -0.264600 0.000000 -44.621200 8.164481 0.764493 5.351176 -1.378292 9.602085 -62.159470 2.113486 1.117724 15.080582 -2.799788 -7.236821 -12.731452 -0.266500 -0.000000 -67.079600
16.938917 16.718614 1.651123 151.200792 -86.086113 -97.530274 -8.287793 -0.554318 3.951008 -8.305577 -12.444866 -61.922409 -2.345319 -1.754374 15.370655 4.349793 15.549881 -14.068064 -0.538500 0.000000 -44.414501 8.194284 0.799397 5.567511 -1.949462 9.704204 -65.140355 2.054165 0.811267 17.717120 -2.902302 -7.104140 -13.838708 -0.102500 -0.000000 -66.588701
16.917911 16.613333 1.647731 146.794191 -86.140867 -91.705244 -8.175460 -0.482528 4.183572 -8.131647 -13.278105 -64.889446 -2.360827 -1.521258 17.911721 4.487820 15.362157 -15.197393 -0.825899 0.000000 -44.074399 8.237417 0.842381 5.801979 -2.565132 9.764283 -68.282876 1.986131 0.468941 20.570484 -3.003416 -6.945794 -15.027094 0.073900 0.000001 -65.937901
16.895136 16.495968 1.644655 142.127629 -86.164307 -85.587578 -8.072858 -0.396711 4.439684 -7.933712 -14.140076 -68.008575 -2.364997 -1.254447 20.634487 4.629730 15.157421 -16.386186 -1.126201 -0.000000 -43.567000 8.291578 0.894928 6.053707 -3.223762 9.781502 -71.568742 1.906694 0.091607 23.631881 -3.103700 -6.773195 -16.286959 0.260401 -0.000000 -65.105100
16.871413 16.366881 1.642179 137.321393 -86.158459 -79.328960 -7.986257 -0.305941 4.706247 -7.708286 -15.008705 -71.233184 -2.353246 -0.951734 23.535944 4.772127 14.935628 -17.632575 -1.439800 -0.000000 -42.869600 8.350811 0.958761 6.310285 -3.908251 9.755338 -74.935572 1.813818 -0.317724 26.878271 -3.203721 -6.601148 -17.605796 0.455600 0.000000 -64.077300
16.846316 16.225881 1.640308 132.451547 -86.124031 -73.015984 -7.918332 -0.216473 4.981838 -7.444388 -15.879622 -74.544738 -2.320168 -0.615326 26.603678 4.915501 14.710536 -18.928180 -1.764800 0.000000 -41.983000 8.412799 1.033205 6.571108 -4.612085 9.686524 -78.358709 1.704588 -0.754878 30.288201 -3.305305 -6.445769 -18.969045 0.657700 -0.000000 -62.861399
16.819370 16.072144 1.638951 127.613279 -86.061388 -66.739081 -7.869877 -0.132628 5.269956 -7.127703 -16.752069 -77.942693 -2.260596 -0.249090 29.824745 5.061771 14.500286 -20.258957 -2.097800 0.000000 -40.946500 8.477574 1.115893 6.842340 -5.332657 9.578012 -81.832126 1.576440 -1.214041 33.834515 -3.410522 -6.321520 -20.360671 0.865500 -0.000000 -61.476500
16.791087 15.906709 1.638195 122.846352 -85.977565 -60.567528 -7.840847 -0.064230 5.557419 -6.757834 -17.603883 -81.378158 -2.171668 0.143963 33.183903 5.207394 14.309132 -21.612225 -2.437400 0.000000 -39.801100 8.542113 1.206462 7.113438 -6.047125 9.431697 -85.296971 1.428514 -1.689070 37.482717 -3.520367 -6.242508 -21.763730 1.079200 0.000000 -59.963100
16.761644 15.730354 1.637937 118.177257 -85.878025 -54.546014 -7.828230 -0.017839 5.835465 -6.334650 -18.419221 -84.813456 -2.051462 0.558716 36.660958 5.350094 14.145336 -22.971782 -2.781200 0.000000 -38.609400 8.606061 1.304463 7.378408 -6.737171 9.251887 -88.711861 1.260240 -2.173761 41.200334 -3.635433 -6.219223 -23.161902 1.299700 0.000000 -58.378600
16.717756 15.529074 1.660205 101.608607 -85.973022 -36.316979 -7.828366 -0.005967 6.446749 -4.939291 -19.682872 -89.021580 -1.764895 0.898122 40.222591 5.498501 14.040205 -24.036836 -3.012799 0.000000 -37.872400 8.716486 1.298282 7.706566 -6.862085 8.792382 -92.434575 1.193761 -2.737799 44.886706 -3.814675 -6.347676 -24.681721 1.560399 0.000000 -56.562300
16.686564 15.334356 1.660417 97.710841 -85.808513 -31.222211 -7.821023 0.002150 6.679711 -4.430216 -20.350368 -92.341121 -1.587503 1.331909 43.838441 5.627497 13.943286 -25.358653 -3.357000 -0.000001 -36.801800 8.796172 1.427332 7.942232 -7.461076 8.581287 -95.642504 0.980376 -3.234835 48.662660 -3.938862 -6.449456 -26.023613 1.801100 -0.000000 -55.050600
16.654607 15.133131 1.660631 94.022115 -85.646290 -26.438578 -7.816954 -0.015512 6.879452 -3.899976 -20.945552 -95.541559 -1.382806 1.770101 47.493812 5.746221 13.887448 -26.644988 -3.700300 -0.000000 -35.871700 8.874660 1.569495 8.151793 -7.989987 8.354303 -98.689117 0.747486 -3.724021 52.415077 -4.065744 -6.617229 -27.319508 2.052400 0.000000 -53.689400
16.621674 14.927227 1.660691 90.557680 -85.486695 -21.991572 -7.813136 -0.057012 7.041848 -3.366497 -21.466049 -98.587916 -1.154245 2.206532 51.156775 5.852989 13.873355 -27.887042 -4.042100 0.000000 -35.121500 8.951227 1.725719 8.330466 -8.441808 8.115864 -101.548695 0.496271 -4.201195 56.119053 -4.193234 -6.845890 -28.563080 2.315399 -0.000000 -52.543500
16.587884 14.718613 1.660458 87.349824 -85.327124 -17.921171 -7.807662 -0.119506 7.165014 -2.849410 -21.915268 -101.449193 -0.905810 2.635604 54.796041 5.947013 13.900124 -29.080849 -4.382800 -0.000000 -34.574500 9.025001 1.896086 8.475041 -8.814696 7.867499 -104.201120 0.228149 -4.663004 59.752709 -4.318782 -7.126157 -29.752595 2.590500 -0.000001 -51.660400
16.552915 14.509152 1.659837 84.429595 -85.163959 -14.261274 -7.799588 -0.199662 7.249697 -2.366917 -22.302263 -104.101919 -0.641613 3.052285 58.381922 6.028511 13.965187 -30.227415 -4.723800 -0.000000 -34.234200 9.095335 2.079331 8.584432 -9.110883 7.608437 -106.633370 -0.055052 -5.106906 63.296773 -4.439709 -7.445406 -30.890540 2.877200 0.000000 -51.068201
16.516168 14.300813 1.658823 81.827387 -84.992410 -11.044181 -7.788617 -0.294300 7.298471 -1.935647 -22.639454 -106.526277 -0.365750 3.452148 61.886459 6.098618 14.065395 -31.331505 -5.067100 -0.000000 -34.095301 9.161987 2.272715 8.659201 -9.334823 7.335736 -108.835021 -0.350927 -5.530864 66.733250 -4.553512 -7.788560 -31.984036 3.174600 -0.000000 -50.773000
16.477441 14.095314 1.657458 79.561979 -84.807513 -8.286062 -7.774684 -0.400470 7.315950 -1.567001 -22.941900 -108.711183 -0.081831 3.831437 65.286671 6.159470 14.197567 -32.402199 -5.415800 -0.000000 -34.129700 9.225504 2.472445 8.702106 -9.493165 7.045999 -110.802469 -0.656818 -5.933451 70.047169 -4.658382 -8.140429 -33.043086 3.480900 0.000000 -50.760400
16.435920 13.894257 1.655796 77.643069 -84.605658 -5.992490 -7.758003 -0.515502 7.307734 -1.269209 -23.223748 -110.648722 0.206707 4.186936 68.561886 6.213702 14.359377 -33.448791 -5.772900 -0.000000 -34.314600 9.287081 2.673897 8.717075 -9.592469 6.736168 -112.533510 -0.969363 -6.313494 73.224155 -4.752866 -8.485108 -34.079087 3.793801 0.000000 -51.000100
16.391482 13.699040 1.653993 76.055254 -84.385635 -4.141975 -7.738879 -0.637000 7.280712 -1.044052 -23.497433 -112.338230 0.497024 4.516003 71.696392 6.264465 14.549883 -34.481650 -6.142100 0.000000 -34.610701 9.348182 2.872222 8.709396 -9.639130 6.406145 -114.030800 -1.285098 -6.670058 76.252437 -4.836786 -8.810284 -35.103138 4.110900 0.000000 -51.450700
16.343450 13.510854 1.652142 74.774643 -84.148462 -2.703662 -7.717959 -0.762746 7.242117 -0.890077 -23.771773 -113.782405 0.786451 4.816685 74.677434 6.314819 14.769500 -35.508424 -6.526500 -0.000000 -34.982999 9.410321 3.062604 8.684759 -9.638457 6.058567 -115.298404 -1.600398 -7.002177 79.121423 -4.910682 -9.107021 -36.122635 4.429299 0.000000 -52.066000
16.291828 13.330777 1.650380 73.760405 -83.897789 -1.630404 -7.696152 -0.890895 7.199321 -0.801270 -24.051516 -114.988055 1.072792 5.087601 77.495755 6.367653 15.020629 -36.533575 -6.928900 -0.000000 -35.397700 9.474521 3.240650 8.648880 -9.594547 5.699801 -116.343482 -1.911693 -7.308971 81.822774 -4.975991 -9.370985 -37.141495 4.746500 -0.000000 -52.799201
16.236311 13.159687 1.648751 72.966716 -83.641054 -0.870867 -7.674657 -1.019056 7.159690 -0.769195 -24.336648 -115.964877 1.354361 5.328065 80.145040 6.425327 15.307705 -37.555449 -7.351200 0.000000 -35.835500 9.541348 3.403277 8.607288 -9.510229 5.339831 -117.174682 -2.215853 -7.589651 84.351069 -5.034666 -9.603315 -38.156881 5.060200 -0.000000 -53.612300
16.177155 12.998181 1.647305 72.345699 -83.384209 -0.366060 -7.655339 -1.147163 7.128484 -0.783534 -24.624176 -116.724477 1.629280 5.537602 82.620082 6.489433 15.635138 -38.568699 -7.794400 0.000001 -36.274800 9.610551 3.546466 8.563705 -9.387539 4.990260 -117.803820 -2.510167 -7.843071 86.702193 -5.089069 -9.809840 -39.161124 5.368800 0.000001 -54.469800
16.114499 12.846842 1.646050 71.846943 -83.137169 -0.060715 -7.639783 -1.273587 7.111094 -0.832808 -24.907072 -117.280977 1.896420 5.716706 84.919044 6.560785 16.008124 -39.562577 -8.258400 0.000000 -36.708200 9.681455 3.668564 8.521755 -9.227392 4.664727 -118.242438 -2.792518 -8.068553 88.875674 -5.141296 -9.999813 -40.141199 5.671300 -0.000000 -55.346200
16.048588 12.706224 1.644901 71.425787 -82.908118 0.094864 -7.629634 -1.398097 7.110329 -0.906489 -25.176436 -117.646546 2.154621 5.866059 87.041411 6.639032 16.430295 -40.522910 -8.741600 0.000000 -37.136300 9.752834 3.768269 8.482852 -9.030237 4.375983 -118.501588 -3.061415 -8.265474 90.873792 -5.192921 -10.184196 -41.081277 5.967300 0.000000 -56.224100
15.980408 12.576707 1.643729 71.047270 -82.705551 0.138808 -7.626324 -1.519602 7.128250 -0.995513 -25.422246 -117.833494 2.402858 5.986979 88.988435 6.723145 16.903528 -41.434701 -9.241301 -0.000000 -37.563100 9.823400 3.845728 8.448475 -8.797539 4.135555 -118.594702 -3.316075 -8.433701 92.702129 -5.244934 -10.374225 -41.964632 6.256900 -0.000000 -57.087400
15.910362 12.458608 1.642501 70.669815 -82.537283 0.117709 -7.630975 -1.637797 7.163888 -1.090441 -25.633418 -117.855683 2.640398 6.081086 90.764738 6.810903 17.425749 -42.282559 -9.752900 0.000000 -37.998800 9.891617 3.902532 8.417098 -8.529884 3.952500 -118.532910 -3.555994 -8.573664 94.368445 -5.297313 -10.579029 -42.774869 6.540100 -0.000001 -57.933100
